<!DOCTYPE svg PUBLIC "-//W3C//DTD SVG 20010904//EN" "http://www.w3.org/TR/2001/REC-SVG-20010904/DTD/svg10.dtd">
<svg version="1.0" xmlns="http://www.w3.org/2000/svg" width="500px" height="500px" viewBox="0 0 5000 5000" preserveAspectRatio="xMidYMid meet">
<g id="layer101" fill="#393e7a" stroke="none">
 <path d="M0 2500 l0 -2500 2500 0 2500 0 0 2500 0 2500 -2500 0 -2500 0 0 -2500z"/>
 </g>
<g id="layer102" fill="#3b447a" stroke="none">
 <path d="M0 2500 l0 -2500 2500 0 2500 0 0 2500 0 2500 -2500 0 -2500 0 0 -2500z m3950 256 c0 -2 -7 -7 -16 -10 -8 -3 -12 -2 -9 4 6 10 25 14 25 6z m-93 -23 c-4 -3 -7 0 -7 7 0 7 3 10 7 7 3 -4 3 -10 0 -14z m483 13 c0 -3 -5 -8 -12 -12 -7 -4 -8 -3 -4 4 7 12 16 16 16 8z m-1773 -53 c-4 -3 -7 0 -7 7 0 7 3 10 7 7 3 -4 3 -10 0 -14z m59 -11 c-18 -16 -18 -16 -6 6 6 13 14 21 18 18 3 -4 -2 -14 -12 -24z m1814 14 c0 -3 -4 -8 -10 -11 -5 -3 -10 -1 -10 4 0 6 5 11 10 11 6 0 10 -2 10 -4z m-1173 -33 c-4 -3 -7 0 -7 7 0 7 3 10 7 7 3 -4 3 -10 0 -14z m-382 -13 c-3 -5 -11 -10 -16 -10 -6 0 -7 5 -4 10 3 6 11 10 16 10 6 0 7 -4 4 -10z m1192 -17 c-4 -3 -7 0 -7 7 0 7 3 10 7 7 3 -4 3 -10 0 -14z"/>
 </g>
<g id="layer103" fill="#474a79" stroke="none">
 <path d="M0 2500 l0 -2500 2500 0 2500 0 0 2500 0 2500 -2500 0 -2500 0 0 -2500z m2727 253 c-4 -3 -7 0 -7 7 0 7 3 10 7 7 3 -4 3 -10 0 -14z m390 0 c-4 -3 -7 0 -7 7 0 7 3 10 7 7 3 -4 3 -10 0 -14z m310 0 c-4 -3 -7 0 -7 7 0 7 3 10 7 7 3 -4 3 -10 0 -14z m542 14 c-2 -2 -17 -11 -34 -21 l-30 -17 24 20 c13 12 28 21 34 21 6 0 8 -1 6 -3z m-1079 -22 c20 -24 6 -28 -15 -5 -10 11 -13 20 -8 20 6 0 16 -7 23 -15z m96 -91 c12 -10 11 -12 -10 -10 -25 1 -26 3 -25 61 l1 60 10 -50 c5 -27 16 -55 24 -61z m304 102 c0 -3 -5 -8 -12 -12 -7 -4 -8 -3 -4 4 7 12 16 16 16 8z m233 -11 c-3 -9 -8 -14 -10 -11 -3 3 -2 9 2 15 9 16 15 13 8 -4z m244 -2 c-4 -3 -7 0 -7 7 0 7 3 10 7 7 3 -4 3 -10 0 -14z m90 -30 c-3 -10 -5 -2 -5 17 0 19 2 27 5 18 2 -10 2 -26 0 -35z m383 -10 c-4 -56 -5 -57 -8 -14 -3 38 2 71 10 71 2 0 1 -26 -2 -57z m103 45 c-6 -7 -15 -26 -21 -43 -10 -28 -10 -28 -11 -6 -1 14 6 33 16 43 18 20 31 25 16 6z m-1776 -90 c-2 -18 -4 -4 -4 32 0 36 2 50 4 33 2 -18 2 -48 0 -65z m1510 75 c-4 -3 -7 0 -7 7 0 7 3 10 7 7 3 -4 3 -10 0 -14z m348 7 c3 -5 4 -10 1 -10 -3 0 -8 5 -11 10 -3 6 -4 10 -1 10 3 0 8 -4 11 -10z m-1308 -17 c-4 -3 -7 0 -7 7 0 7 3 10 7 7 3 -4 3 -10 0 -14z m60 -5 c-3 -8 -6 -5 -6 6 -1 11 2 17 5 13 3 -3 4 -12 1 -19z m203 1 c0 -6 -4 -7 -10 -4 -5 3 -10 11 -10 16 0 6 5 7 10 4 6 -3 10 -11 10 -16z m-117 -11 c-3 -14 4 -32 18 -47 12 -13 16 -22 8 -19 -20 7 -43 52 -36 71 9 24 15 21 10 -5z m504 -10 c-3 -7 -5 -2 -5 12 0 14 2 19 5 13 2 -7 2 -19 0 -25z m-242 12 c3 -5 4 -10 1 -10 -3 0 -8 5 -11 10 -3 6 -4 10 -1 10 3 0 8 -4 11 -10z m-885 -7 c0 -5 -10 -19 -21 -33 l-20 -25 16 33 c15 30 25 41 25 25z m38 -29 c-4 -3 -12 5 -18 18 -12 22 -12 22 6 6 10 -10 15 -20 12 -24z m442 9 c0 -20 -3 -24 -11 -16 -7 7 -9 19 -6 27 10 24 17 19 17 -11z m960 11 c0 -8 -5 -12 -10 -9 -6 4 -8 11 -5 16 9 14 15 11 15 -7z m-72 -1 c-10 -2 -26 -2 -35 0 -10 3 -2 5 17 5 19 0 27 -2 18 -5z m432 3 c0 -3 -4 -8 -10 -11 -5 -3 -10 -1 -10 4 0 6 5 11 10 11 6 0 10 -2 10 -4z m-1073 -33 c-4 -3 -7 0 -7 7 0 7 3 10 7 7 3 -4 3 -10 0 -14z m663 14 c0 -2 -10 -12 -22 -23 l-23 -19 19 23 c18 21 26 27 26 19z m-1140 -22 c-7 -8 -18 -15 -24 -15 -6 0 -2 7 8 15 25 19 32 19 16 0z m711 -8 c-10 -9 -11 -8 -5 6 3 10 9 15 12 12 3 -3 0 -11 -7 -18z m330 6 c13 -16 12 -17 -3 -4 -17 13 -22 21 -14 21 2 0 10 -8 17 -17z m499 13 c0 -2 -8 -10 -17 -17 -16 -13 -17 -12 -4 4 13 16 21 21 21 13z m-1729 -28 c11 -21 11 -22 -4 -9 -10 7 -17 17 -17 22 0 15 9 10 21 -13z m1459 7 c-7 -8 -18 -15 -24 -15 -6 0 -2 7 8 15 25 19 32 19 16 0z m-1043 -12 c-4 -3 -7 0 -7 7 0 7 3 10 7 7 3 -4 3 -10 0 -14z m230 10 c-4 -3 -10 -3 -14 0 -3 4 0 7 7 7 7 0 10 -3 7 -7z m80 -10 c-4 -3 -7 0 -7 7 0 7 3 10 7 7 3 -4 3 -10 0 -14z m420 10 c-4 -3 -10 -3 -14 0 -3 4 0 7 7 7 7 0 10 -3 7 -7z m230 -10 c-4 -3 -7 0 -7 7 0 7 3 10 7 7 3 -4 3 -10 0 -14z m160 -30 c-4 -3 -7 0 -7 7 0 7 3 10 7 7 3 -4 3 -10 0 -14z m-3920 -40 c-4 -3 -7 0 -7 7 0 7 3 10 7 7 3 -4 3 -10 0 -14z m358 -133 c3 -5 4 -10 1 -10 -3 0 -8 5 -11 10 -3 6 -4 10 -1 10 3 0 8 -4 11 -10z m2175 -94 c0 -3 -5 -8 -12 -12 -7 -4 -8 -3 -4 4 7 12 16 16 16 8z m-2403 -133 c-2 -16 -4 -3 -4 27 0 30 2 43 4 28 2 -16 2 -40 0 -55z m1570 45 c-3 -8 -6 -5 -6 6 -1 11 2 17 5 13 3 -3 4 -12 1 -19z m820 -205 c-4 -3 -7 0 -7 7 0 7 3 10 7 7 3 -4 3 -10 0 -14z m-114 -150 c-7 -2 -21 -2 -30 0 -10 3 -4 5 12 5 17 0 24 -2 18 -5z"/>
 </g>
<g id="layer104" fill="#344194" stroke="none">
 <path d="M0 2500 l0 -2500 2500 0 2500 0 0 2500 0 2500 -2500 0 -2500 0 0 -2500z m2567 163 c-2 -21 -4 -4 -4 37 0 41 2 58 4 38 2 -21 2 -55 0 -75z m160 90 c-4 -3 -7 0 -7 7 0 7 3 10 7 7 3 -4 3 -10 0 -14z m113 7 c-8 -5 -19 -10 -25 -10 -5 0 -3 5 5 10 8 5 20 10 25 10 6 0 3 -5 -5 -10z m148 -109 c16 -13 16 -13 -2 -7 -12 4 -23 1 -28 -6 -4 -7 -7 20 -7 62 l1 75 9 -55 c5 -31 17 -61 27 -69z m69 102 c-4 -3 -7 0 -7 7 0 7 3 10 7 7 3 -4 3 -10 0 -14z m60 0 c-4 -3 -7 0 -7 7 0 7 3 10 7 7 3 -4 3 -10 0 -14z m80 0 c-8 -10 -17 -36 -20 -58 l-4 -40 -1 46 c-2 43 10 69 32 69 5 0 2 -8 -7 -17z m137 8 c4 -5 -2 -7 -13 -4 -21 5 -61 -32 -61 -57 0 -9 10 -26 21 -39 16 -17 28 -21 48 -16 19 4 22 3 11 -5 -8 -5 -21 -10 -28 -10 -20 0 -62 47 -62 70 0 39 68 88 84 61z m93 -8 c-4 -3 -7 0 -7 7 0 7 3 10 7 7 3 -4 3 -10 0 -14z m130 10 c-4 -3 -10 -3 -14 0 -3 4 0 7 7 7 7 0 10 -3 7 -7z m120 -10 c-4 -3 -7 0 -7 7 0 7 3 10 7 7 3 -4 3 -10 0 -14z m90 -45 c-2 -13 -4 -3 -4 22 0 25 2 35 4 23 2 -13 2 -33 0 -45z m90 10 c-2 -13 -4 -5 -4 17 -1 22 1 32 4 23 2 -10 2 -28 0 -40z m112 49 c-2 -2 -17 -11 -34 -21 l-30 -17 24 20 c13 12 28 21 34 21 6 0 8 -1 6 -3z m108 -29 c-3 -7 -5 -2 -5 12 0 14 2 19 5 13 2 -7 2 -19 0 -25z m103 22 c0 -5 -4 -10 -10 -10 -5 0 -10 5 -10 10 0 6 5 10 10 10 6 0 10 -4 10 -10z m94 1 c3 -5 -2 -8 -12 -7 -14 1 -18 -10 -23 -54 l-6 -55 -1 51 c-2 57 23 96 42 65z m137 -11 c13 -10 20 -19 15 -20 -5 0 -17 7 -27 16 -36 32 -89 -18 -73 -69 4 -13 2 -17 -5 -13 -21 14 -12 64 15 85 33 26 46 26 75 1z m-1512 -24 c10 -22 11 -30 1 -39 -10 -9 -11 -9 -5 1 4 9 -2 26 -15 44 -14 18 -17 29 -9 26 8 -2 20 -17 28 -32z m624 19 c-3 -9 -8 -14 -10 -11 -3 3 -2 9 2 15 9 16 15 13 8 -4z m72 5 c3 -5 4 -10 1 -10 -3 0 -8 5 -11 10 -3 6 -4 10 -1 10 3 0 8 -4 11 -10z m410 0 c3 -5 4 -10 1 -10 -3 0 -8 5 -11 10 -3 6 -4 10 -1 10 3 0 8 -4 11 -10z m-888 -27 c-4 -3 -7 0 -7 7 0 7 3 10 7 7 3 -4 3 -10 0 -14z m263 -4 c0 -6 -4 -7 -10 -4 -5 3 -10 11 -10 16 0 6 5 7 10 4 6 -3 10 -11 10 -16z m145 -9 c3 -5 4 -10 1 -10 -3 0 -8 5 -11 10 -3 6 -4 10 -1 10 3 0 8 -4 11 -10z m-902 -41 c-10 -19 -19 -36 -20 -38 -2 -2 -5 -2 -8 1 -3 3 4 22 16 42 27 46 36 41 12 -5z m55 5 c-4 -3 -12 5 -18 18 -12 22 -12 22 6 6 10 -10 15 -20 12 -24z m442 9 c0 -20 -3 -24 -11 -16 -7 7 -9 19 -6 27 10 24 17 19 17 -11z m960 11 c0 -8 -5 -12 -10 -9 -6 4 -8 11 -5 16 9 14 15 11 15 -7z m-513 -1 c-4 -3 -10 -3 -14 0 -3 4 0 7 7 7 7 0 10 -3 7 -7z m441 0 c-15 -2 -42 -2 -60 0 -18 2 -6 4 27 4 33 0 48 -2 33 -4z m432 3 c0 -3 -4 -8 -10 -11 -5 -3 -10 -1 -10 4 0 6 5 11 10 11 6 0 10 -2 10 -4z m-1073 -33 c-4 -3 -7 0 -7 7 0 7 3 10 7 7 3 -4 3 -10 0 -14z m663 14 c0 -2 -10 -12 -22 -23 l-23 -19 19 23 c18 21 26 27 26 19z m-1149 -27 c-26 -22 -39 -24 -61 -9 -12 8 -10 9 7 4 14 -4 32 0 45 9 32 22 38 19 9 -4z m715 -6 c-11 -8 -27 -14 -35 -13 -9 0 -4 5 12 11 15 5 27 15 27 21 0 5 3 7 7 3 5 -4 -1 -14 -11 -22z m335 9 c13 -16 12 -17 -3 -4 -17 13 -22 21 -14 21 2 0 10 -8 17 -17z m489 2 c-7 -8 -17 -15 -22 -15 -6 0 -5 7 2 15 7 8 17 15 22 15 6 0 5 -7 -2 -15z m-1719 -17 c11 -21 11 -22 -4 -9 -10 7 -17 17 -17 22 0 15 9 10 21 -13z m764 12 c3 -5 1 -10 -4 -10 -6 0 -11 5 -11 10 0 6 2 10 4 10 3 0 8 -4 11 -10z m330 0 c3 -5 4 -10 1 -10 -3 0 -8 5 -11 10 -3 6 -4 10 -1 10 3 0 8 -4 11 -10z m320 0 c3 -5 2 -10 -4 -10 -5 0 -13 5 -16 10 -3 6 -2 10 4 10 5 0 13 -4 16 -10z m45 -5 c-7 -8 -18 -15 -24 -15 -6 0 -2 7 8 15 25 19 32 19 16 0z m-1125 -5 c-3 -5 -12 -10 -18 -10 -7 0 -6 4 3 10 19 12 23 12 15 0z m82 -7 c-4 -3 -7 0 -7 7 0 7 3 10 7 7 3 -4 3 -10 0 -14z m310 0 c-4 -3 -7 0 -7 7 0 7 3 10 7 7 3 -4 3 -10 0 -14z m110 10 c-4 -3 -10 -3 -14 0 -3 4 0 7 7 7 7 0 10 -3 7 -7z m303 -3 c-8 -5 -19 -10 -25 -10 -5 0 -3 5 5 10 8 5 20 10 25 10 6 0 3 -5 -5 -10z m237 -7 c-4 -3 -7 0 -7 7 0 7 3 10 7 7 3 -4 3 -10 0 -14z m293 7 c8 -5 11 -10 5 -10 -5 0 -17 5 -25 10 -8 5 -10 10 -5 10 6 0 17 -5 25 -10z m-1153 -6 c-3 -3 -12 -4 -19 -1 -8 3 -5 6 6 6 11 1 17 -2 13 -5z m520 -1 c-4 -3 -10 -3 -14 0 -3 4 0 7 7 7 7 0 10 -3 7 -7z m240 1 c-3 -3 -12 -4 -19 -1 -8 3 -5 6 6 6 11 1 17 -2 13 -5z m300 0 c-3 -3 -12 -4 -19 -1 -8 3 -5 6 6 6 11 1 17 -2 13 -5z m-1100 -46 c-3 -7 -5 -2 -5 12 0 14 2 19 5 13 2 -7 2 -19 0 -25z m1060 0 c-3 -7 -5 -2 -5 12 0 14 2 19 5 13 2 -7 2 -19 0 -25z m-1120 -5 c-4 -3 -7 0 -7 7 0 7 3 10 7 7 3 -4 3 -10 0 -14z m-540 0 c-4 -3 -10 -3 -14 0 -3 4 0 7 7 7 7 0 10 -3 7 -7z m-2260 -20 c-4 -3 -7 0 -7 7 0 7 3 10 7 7 3 -4 3 -10 0 -14z m358 -133 c3 -5 4 -10 1 -10 -3 0 -8 5 -11 10 -3 6 -4 10 -1 10 3 0 8 -4 11 -10z m2167 -102 c-7 -7 -12 -8 -12 -2 0 14 12 26 19 19 2 -3 -1 -11 -7 -17z m-2395 -125 c-2 -16 -4 -3 -4 27 0 30 2 43 4 28 2 -16 2 -40 0 -55z m1570 45 c-3 -8 -6 -5 -6 6 -1 11 2 17 5 13 3 -3 4 -12 1 -19z m820 -205 c-4 -3 -7 0 -7 7 0 7 3 10 7 7 3 -4 3 -10 0 -14z m-109 -150 c-10 -2 -26 -2 -35 0 -10 3 -2 5 17 5 19 0 27 -2 18 -5z"/>
 </g>
<g id="layer105" fill="#2f41ac" stroke="none">
 <path d="M0 2500 l0 -2500 2500 0 2500 0 0 2500 0 2500 -2500 0 -2500 0 0 -2500z m1460 697 c47 -11 94 -27 105 -35 l20 -14 -20 7 c-83 32 -173 48 -320 55 l-160 7 145 1 c113 0 164 -5 230 -21z m-420 -2 c-25 -7 -71 -20 -104 -29 -129 -36 -320 -155 -402 -250 -19 -22 -36 -38 -38 -35 -7 6 43 59 104 110 77 65 166 121 230 148 30 12 64 27 75 32 29 14 114 35 149 36 26 1 23 -1 -14 -12z m632 -77 c79 -41 188 -122 253 -187 72 -74 45 -62 -33 14 -36 36 -69 65 -73 65 -5 0 -20 11 -35 25 -30 28 -52 41 -131 79 -29 14 -53 27 -53 30 0 10 8 7 72 -26z m-1198 -279 c-9 -11 -19 -17 -21 -15 -8 7 21 45 30 39 4 -3 1 -14 -9 -24z m1584 -78 c40 -68 92 -177 92 -192 0 -5 -4 -9 -10 -9 -5 0 -10 11 -10 25 0 14 -5 25 -12 25 -6 0 -8 3 -5 7 9 9 -71 158 -110 203 -18 21 -33 42 -33 46 0 18 53 -45 88 -105z m-1648 -6 c-17 -30 -28 -55 -23 -55 4 0 3 -4 -3 -8 -17 -11 -54 -88 -54 -112 0 -11 -4 -20 -10 -20 -13 0 -13 1 10 61 22 55 97 189 106 189 3 0 -9 -25 -26 -55z m2169 -125 c4 0 20 23 36 51 l28 52 18 -24 c10 -13 27 -40 36 -59 l18 -35 5 80 c6 94 20 77 20 -23 0 -89 -11 -104 -39 -57 -11 20 -21 39 -21 43 0 4 -9 18 -18 30 l-18 24 -34 -66 c-19 -36 -38 -66 -42 -66 -4 0 -7 44 -6 98 2 88 2 91 5 25 2 -40 7 -73 12 -73z m240 110 c-33 -32 -32 -62 0 -87 23 -18 41 -12 64 19 l21 28 -23 31 c-14 19 -18 30 -10 27 8 -2 20 -16 27 -30 16 -34 1 -74 -33 -90 -22 -10 -30 -8 -53 9 -38 28 -39 91 -2 110 39 20 41 16 9 -17z m169 -89 c16 -13 16 -13 -2 -7 -12 4 -23 1 -28 -6 -4 -7 -7 20 -7 62 l1 75 9 -55 c5 -31 17 -61 27 -69z m56 -8 c-25 -18 -39 -16 -20 3 9 9 16 32 16 54 0 68 15 80 18 15 3 -47 0 -62 -14 -72z m76 55 c0 -51 -3 -68 -10 -58 -16 24 -11 130 6 130 2 0 4 -33 4 -72z m77 54 c-10 -11 -17 -36 -17 -61 0 -34 4 -43 23 -51 l22 -9 -22 0 c-18 -1 -23 -7 -23 -28 0 -14 -3 -24 -6 -20 -3 3 -6 41 -5 83 1 73 11 104 34 104 5 0 3 -8 -6 -18z m170 -10 c21 -29 16 -69 -13 -91 -34 -27 -50 -26 -79 4 -32 31 -32 59 1 91 28 29 67 27 91 -4z m73 -31 c0 -19 8 -43 18 -54 16 -20 16 -20 -2 -13 -12 4 -23 2 -28 -6 -4 -7 -8 20 -8 62 0 52 3 70 10 60 5 -8 10 -30 10 -49z m117 52 c-4 -3 -10 -3 -14 0 -3 4 0 7 7 7 7 0 10 -3 7 -7z m42 -115 c-11 -10 -29 -18 -38 -17 -9 0 -4 5 12 11 24 8 27 15 27 52 0 23 -6 48 -12 55 -9 10 -9 12 -1 7 6 -3 15 -1 20 6 5 8 9 -9 11 -42 3 -46 0 -58 -19 -72z m83 55 c3 -30 0 -43 -9 -43 -14 0 -18 65 -6 97 8 20 10 15 15 -54z m108 -49 c13 -17 13 -18 0 -7 -12 9 -19 8 -34 -3 -29 -21 -39 -17 -16 6 14 14 20 35 21 73 l2 52 6 -51 c3 -28 13 -60 21 -70z m54 -11 c-27 -20 -36 -15 -14 7 14 14 21 35 22 73 l2 52 3 -60 c3 -48 1 -62 -13 -72z m104 111 c-16 -8 -28 -23 -28 -34 0 -18 7 -20 55 -20 61 0 71 -13 33 -46 -23 -19 -23 -19 -5 2 25 30 22 34 -33 34 -52 0 -63 -12 -37 -40 6 -8 2 -6 -10 4 -32 26 -30 69 3 95 15 12 32 21 38 21 6 -1 -1 -8 -16 -16z m157 -99 c20 -16 20 -16 -2 -10 -16 4 -23 2 -23 -7 0 -10 -3 -9 -10 2 -11 18 -13 75 -3 110 6 20 9 15 13 -27 4 -36 12 -58 25 -68z m75 105 c0 -5 -4 -10 -10 -10 -5 0 -10 5 -10 10 0 6 5 10 10 10 6 0 10 -4 10 -10z m94 1 c3 -5 -2 -8 -12 -7 -14 1 -18 -9 -20 -52 -3 -48 -1 -54 19 -59 21 -6 22 -7 4 -13 -11 -4 -23 -18 -26 -31 -7 -23 -7 -23 -8 4 -1 15 -6 27 -13 27 -9 0 -9 3 0 12 7 7 12 33 12 58 0 54 26 90 44 61z m140 -12 c32 -25 35 -68 6 -94 -11 -10 -22 -16 -25 -13 -3 3 1 11 10 18 37 31 1 109 -45 95 -48 -15 -46 -89 4 -113 11 -6 16 -11 10 -11 -25 -2 -64 41 -64 69 0 29 38 70 65 70 7 0 24 -9 39 -21z m-889 -19 c0 -25 -2 -27 -14 -15 -12 11 -12 17 -1 29 16 20 15 21 15 -14z m480 20 c3 -5 4 -10 1 -10 -3 0 -8 5 -11 10 -3 6 -4 10 -1 10 3 0 8 -4 11 -10z m-438 -57 c-4 -3 -10 -3 -14 0 -3 4 0 7 7 7 7 0 10 -3 7 -7z m613 -11 c0 -21 -36 -59 -46 -49 -4 4 1 9 10 13 9 3 16 17 16 30 0 13 5 24 10 24 6 0 10 -8 10 -18z m-643 -39 c-4 -3 -10 -3 -14 0 -3 4 0 7 7 7 7 0 10 -3 7 -7z m440 -9 c-3 -3 -12 -4 -19 -1 -8 3 -5 6 6 6 11 1 17 -2 13 -5z m-860 -51 c-4 -3 -7 0 -7 7 0 7 3 10 7 7 3 -4 3 -10 0 -14z m-2628 -83 c-11 -36 -24 -83 -29 -105 l-8 -40 -1 34 c-1 19 8 61 20 95 12 34 23 67 25 75 3 8 6 12 9 10 2 -3 -5 -34 -16 -69z m91 29 c0 -4 25 -27 55 -51 30 -23 55 -47 55 -51 0 -5 34 -42 76 -83 l75 -74 77 75 c42 41 81 75 87 75 9 0 -155 -159 -165 -160 -3 0 -75 70 -160 156 -85 86 -143 149 -127 139 15 -10 27 -21 27 -26z m1390 -11 c11 -18 20 -42 19 -53 0 -12 -6 -5 -16 20 -22 53 -19 52 -53 20 -17 -16 -30 -25 -30 -21 0 7 51 66 58 66 1 0 11 -15 22 -32z m209 -68 c0 -8 -7 5 -15 30 -7 25 -13 52 -13 60 0 8 7 -5 15 -30 7 -25 13 -52 13 -60z m-1878 41 c-6 -11 -11 -35 -11 -53 0 -18 -5 -40 -10 -48 -7 -11 -10 -8 -10 16 0 38 33 146 38 122 2 -9 -2 -26 -7 -37z m749 -36 c-7 -9 -15 -13 -17 -11 -7 7 7 26 19 26 6 0 6 -6 -2 -15z m106 -63 c20 -20 38 -30 45 -26 8 4 9 3 5 -4 -4 -7 49 -67 129 -147 l136 -136 37 32 c32 28 65 61 109 111 20 22 44 40 48 36 3 -2 -39 -48 -93 -101 l-97 -97 -205 207 c-113 114 -192 196 -176 183 15 -14 43 -40 62 -58z m709 58 c-10 -11 -21 -18 -23 -15 -3 3 3 12 14 20 27 20 30 18 9 -5z m144 -65 c-1 -29 -1 -29 -9 -5 -4 14 -8 34 -9 45 -1 16 1 17 9 5 5 -8 9 -28 9 -45z m-224 -15 c-27 -27 -51 -48 -53 -46 -3 4 4 13 45 58 25 26 38 37 48 38 5 0 -13 -22 -40 -50z m402 18 c-3 -7 -5 -2 -5 12 0 14 2 19 5 13 2 -7 2 -19 0 -25z m-1920 -210 c-2 -35 -3 -7 -3 62 0 69 1 97 3 63 2 -35 2 -91 0 -125z m1930 40 c-2 -29 -3 -8 -3 47 0 55 1 79 3 53 2 -26 2 -71 0 -100z m514 113 l29 -29 0 -206 0 -206 -45 0 c-25 0 -45 4 -45 9 0 5 6 9 13 8 6 0 24 1 40 1 l27 2 0 174 c0 192 -5 235 -29 243 -9 3 -26 9 -38 15 -29 14 -91 2 -96 -20 -4 -13 -5 -12 -6 5 -1 26 10 31 72 32 41 1 53 -4 78 -28z m176 6 c-20 -5 -37 -13 -37 -18 0 -5 -5 -9 -11 -9 -6 0 -9 8 -7 18 2 11 16 19 38 23 49 7 63 -3 17 -14z m121 16 c-10 -2 -28 -2 -40 0 -13 2 -5 4 17 4 22 1 32 -1 23 -4z m110 -26 c56 -59 50 -158 -11 -206 -17 -13 -17 -13 -6 12 7 15 15 24 20 21 13 -7 23 86 13 124 -9 35 -14 40 -64 60 l-25 11 26 0 c15 1 35 -9 47 -22z m-2664 -117 c5 -129 33 -230 94 -345 3 -6 1 -6 -6 0 -7 6 -29 51 -50 100 -33 76 -41 108 -51 205 -6 63 -9 124 -7 135 3 11 5 25 6 30 4 26 9 -19 14 -125z m1569 28 l-10 -63 -1 85 c0 67 2 80 10 63 8 -16 8 -42 1 -85z m-303 68 c0 -2 -8 -10 -17 -17 -16 -13 -17 -12 -4 4 13 16 21 21 21 13z m1148 -22 c6 3 13 2 17 -4 4 -6 -5 -10 -19 -10 -18 0 -26 5 -26 18 0 13 2 14 9 3 5 -7 13 -11 19 -7z m-220 -19 c2 -15 1 -17 -6 -7 -5 8 -25 18 -43 22 l-34 9 40 -2 c31 -2 40 -6 43 -22z m400 13 c7 -7 12 -18 12 -26 0 -10 -3 -10 -16 2 -8 9 -29 16 -45 16 -18 0 -28 4 -24 10 9 14 58 13 73 -2z m12 -87 c-6 -12 -17 -21 -25 -21 -11 0 -10 5 5 20 11 11 20 26 21 33 0 9 2 9 5 0 3 -7 0 -21 -6 -32z m-84 -41 c-22 -11 -44 -20 -49 -20 -26 0 -77 -52 -83 -85 -3 -19 -10 -33 -14 -30 -12 8 0 50 24 80 13 17 48 38 82 51 73 28 92 30 40 4z m-981 -105 c-8 -26 -12 -51 -9 -57 4 -7 2 -8 -4 -4 -7 4 -13 2 -13 -3 -3 -26 -4 -30 -11 -37 -5 -4 -8 -18 -8 -31 0 -13 -4 -23 -8 -23 -4 0 -16 -15 -27 -32 -24 -42 -112 -157 -140 -183 -11 -11 -38 -31 -58 -45 -20 -14 -37 -28 -37 -33 0 -17 -241 -118 -278 -116 -9 1 9 9 41 20 32 10 88 33 125 50 212 101 382 318 424 545 11 60 13 64 16 32 2 -20 -4 -58 -13 -83z m196 74 l-10 -24 0 26 c-1 14 2 29 6 33 12 12 14 -9 4 -35z m-1885 -137 c9 -30 13 -56 11 -59 -7 -7 -39 105 -43 152 l-4 40 11 -40 c5 -22 17 -64 25 -93z m2764 118 c-20 -13 -33 -13 -25 0 3 6 14 10 23 10 15 0 15 -2 2 -10z m-40 -14 c0 -3 -17 -10 -37 -16 -76 -25 -93 -63 -45 -99 15 -11 21 -21 15 -21 -21 0 -53 38 -53 64 0 32 56 73 103 75 9 1 17 -1 17 -3z m-860 -73 c-19 -84 -80 -220 -132 -299 -47 -70 -142 -171 -119 -126 6 12 17 22 23 22 6 0 9 3 6 6 -3 3 9 20 28 38 19 18 34 38 34 44 0 6 4 12 8 14 25 10 112 194 112 236 0 13 4 21 9 18 5 -3 15 21 22 54 7 33 15 57 18 55 2 -3 -2 -31 -9 -62z m695 -89 c10 -11 48 -23 89 -30 67 -12 68 -12 21 -12 -75 1 -132 29 -143 70 -5 18 -7 37 -3 43 3 5 8 -4 12 -22 3 -17 14 -40 24 -49z m271 22 c2 -14 0 -16 -9 -7 -6 6 -37 11 -70 11 -38 0 -56 4 -52 10 4 6 33 10 67 8 51 -3 62 -6 64 -22z m-6 -46 c-19 -12 -70 -13 -70 -2 0 5 13 7 29 4 16 -2 32 1 36 8 4 6 10 9 13 5 4 -3 0 -10 -8 -15z m-2707 -168 c25 -37 56 -80 71 -97 14 -16 26 -33 26 -37 0 -11 -72 71 -102 117 -33 50 -98 177 -97 190 0 6 13 -16 29 -48 16 -31 49 -88 73 -125z m169 71 c87 -127 227 -231 392 -290 76 -27 83 -31 46 -27 -25 3 -66 16 -91 30 -25 13 -49 21 -53 17 -3 -3 -6 -2 -6 4 0 6 -15 17 -32 24 -48 19 -153 102 -207 162 -47 53 -91 112 -91 122 0 13 11 2 42 -42z m-18 -89 c3 -8 2 -12 -4 -9 -6 3 -10 10 -10 16 0 14 7 11 14 -7z m21 -167 c4 5 5 3 1 -4 -5 -10 22 -36 75 -68 9 -5 40 -27 70 -47 30 -20 63 -38 74 -40 11 -2 22 -5 25 -8 12 -12 51 -30 65 -30 8 0 23 -4 33 -9 9 -5 40 -16 67 -24 30 -9 41 -15 27 -16 -53 -2 -251 80 -342 143 -56 38 -160 132 -160 143 0 4 13 -5 28 -20 16 -15 32 -24 37 -20z m1272 -25 c-70 -62 -86 -69 -27 -11 30 30 58 53 62 51 4 -1 -12 -19 -35 -40z m-739 -49 c-10 -2 -26 -2 -35 0 -10 3 -2 5 17 5 19 0 27 -2 18 -5z m240 0 c-10 -2 -26 -2 -35 0 -10 3 -2 5 17 5 19 0 27 -2 18 -5z m-100 -10 c-21 -2 -55 -2 -75 0 -21 2 -4 4 37 4 41 0 58 -2 38 -4z m492 -24 c-33 -26 -101 -62 -107 -56 -2 3 14 15 36 28 23 12 41 26 41 30 0 7 22 15 45 18 6 0 -1 -8 -15 -20z m-132 -72 c-31 -24 -158 -61 -169 -50 -7 7 -1 10 18 11 15 0 55 12 88 26 66 28 89 32 63 13z m-508 -67 c0 -5 -11 -10 -24 -10 -14 0 -28 5 -31 10 -4 6 7 10 24 10 17 0 31 -4 31 -10z m310 0 c-38 -12 -99 -12 -80 0 8 5 35 9 60 9 37 -1 41 -2 20 -9z m-162 -17 c-21 -2 -55 -2 -75 0 -21 2 -4 4 37 4 41 0 58 -2 38 -4z"/>
 <path d="M2570 2610 c0 -7 3 -10 7 -7 3 4 3 10 0 14 -4 3 -7 0 -7 -7z"/>
 <path d="M3280 2738 c-11 -12 -20 -29 -20 -38 0 -20 36 -60 53 -60 45 2 67 88 28 110 -28 15 -38 13 -61 -12z"/>
 </g>
<g id="layer106" fill="#737373" stroke="none">
 <path d="M0 2500 l0 -2500 2500 0 2500 0 0 2500 0 2500 -2500 0 -2500 0 0 -2500z m1455 700 c87 -22 87 -22 190 -70 110 -51 173 -96 271 -195 159 -160 223 -282 270 -515 17 -81 14 -276 -5 -360 -5 -25 -13 -58 -17 -75 -4 -16 -23 -69 -44 -116 -93 -218 -268 -397 -488 -501 -121 -57 -215 -79 -367 -85 -159 -6 -273 14 -413 75 -126 54 -212 114 -318 221 -132 132 -206 266 -255 459 -19 75 -21 105 -16 241 4 160 10 189 64 330 53 140 138 263 253 367 60 55 182 134 250 163 30 13 65 28 77 34 108 49 400 64 548 27z m1124 -570 c4 0 20 23 36 51 l28 52 18 -24 c10 -13 27 -40 36 -59 l18 -35 5 80 c6 94 20 77 20 -23 0 -89 -11 -104 -39 -57 -11 20 -21 39 -21 43 0 4 -9 18 -18 30 l-18 24 -34 -66 c-19 -36 -38 -66 -42 -66 -4 0 -7 44 -6 98 2 88 2 91 5 25 2 -40 7 -73 12 -73z m240 110 c-33 -32 -32 -62 0 -87 23 -18 41 -12 64 19 l21 28 -23 31 c-14 19 -18 30 -10 27 8 -2 20 -16 27 -30 16 -34 1 -74 -33 -90 -22 -10 -30 -8 -53 9 -38 28 -39 91 -2 110 39 20 41 16 9 -17z m169 -89 c16 -13 16 -13 -2 -7 -12 4 -23 1 -28 -6 -4 -7 -7 20 -7 62 l1 75 9 -55 c5 -31 17 -61 27 -69z m56 -8 c-25 -18 -39 -16 -20 3 9 9 16 32 16 54 0 68 15 80 18 15 3 -47 0 -62 -14 -72z m76 55 c0 -51 -3 -68 -10 -58 -16 24 -11 130 6 130 2 0 4 -33 4 -72z m77 54 c-10 -11 -17 -36 -17 -61 0 -34 4 -43 23 -51 l22 -9 -22 0 c-18 -1 -23 -7 -23 -28 0 -14 -3 -24 -6 -20 -3 3 -6 41 -5 83 1 73 11 104 34 104 5 0 3 -8 -6 -18z m170 -10 c21 -29 16 -69 -13 -91 -34 -27 -50 -26 -79 4 -32 31 -32 59 1 91 28 29 67 27 91 -4z m73 -31 c0 -19 8 -43 18 -54 16 -20 16 -20 -2 -13 -12 4 -23 2 -28 -6 -4 -7 -8 20 -8 62 0 52 3 70 10 60 5 -8 10 -30 10 -49z m117 52 c-4 -3 -10 -3 -14 0 -3 4 0 7 7 7 7 0 10 -3 7 -7z m42 -115 c-11 -10 -29 -18 -38 -17 -9 0 -4 5 12 11 24 8 27 15 27 52 0 23 -6 48 -12 55 -9 10 -9 12 -1 7 6 -3 15 -1 20 6 5 8 9 -9 11 -42 3 -46 0 -58 -19 -72z m83 55 c3 -30 0 -43 -9 -43 -14 0 -18 65 -6 97 8 20 10 15 15 -54z m108 -49 c13 -17 13 -18 0 -7 -12 9 -19 8 -34 -3 -29 -21 -39 -17 -16 6 14 14 20 35 21 73 l2 52 6 -51 c3 -28 13 -60 21 -70z m54 -11 c-27 -20 -36 -15 -14 7 14 14 21 35 22 73 l2 52 3 -60 c3 -48 1 -62 -13 -72z m104 111 c-16 -8 -28 -23 -28 -34 0 -18 7 -20 55 -20 61 0 71 -13 33 -46 -23 -19 -23 -19 -5 2 25 30 22 34 -33 34 -52 0 -63 -12 -37 -40 6 -8 2 -6 -10 4 -32 26 -30 69 3 95 15 12 32 21 38 21 6 -1 -1 -8 -16 -16z m157 -99 c20 -16 20 -16 -2 -10 -16 4 -23 2 -23 -7 0 -10 -3 -9 -10 2 -11 18 -13 75 -3 110 6 20 9 15 13 -27 4 -36 12 -58 25 -68z m75 105 c0 -5 -4 -10 -10 -10 -5 0 -10 5 -10 10 0 6 5 10 10 10 6 0 10 -4 10 -10z m94 1 c3 -5 -2 -8 -12 -7 -14 1 -18 -9 -20 -52 -3 -48 -1 -54 19 -59 21 -6 22 -7 4 -13 -11 -4 -23 -18 -26 -31 -7 -23 -7 -23 -8 4 -1 15 -6 27 -13 27 -9 0 -9 3 0 12 7 7 12 33 12 58 0 54 26 90 44 61z m140 -12 c32 -25 35 -68 6 -94 -11 -10 -22 -16 -25 -13 -3 3 1 11 10 18 37 31 1 109 -45 95 -48 -15 -46 -89 4 -113 11 -6 16 -11 10 -11 -25 -2 -64 41 -64 69 0 29 38 70 65 70 7 0 24 -9 39 -21z m-889 -19 c0 -25 -2 -27 -14 -15 -12 11 -12 17 -1 29 16 20 15 21 15 -14z m480 20 c3 -5 4 -10 1 -10 -3 0 -8 5 -11 10 -3 6 -4 10 -1 10 3 0 8 -4 11 -10z m-438 -57 c-4 -3 -10 -3 -14 0 -3 4 0 7 7 7 7 0 10 -3 7 -7z m613 -11 c0 -21 -36 -59 -46 -49 -4 4 1 9 10 13 9 3 16 17 16 30 0 13 5 24 10 24 6 0 10 -8 10 -18z m-643 -39 c-4 -3 -10 -3 -14 0 -3 4 0 7 7 7 7 0 10 -3 7 -7z m440 -9 c-3 -3 -12 -4 -19 -1 -8 3 -5 6 6 6 11 1 17 -2 13 -5z m-860 -51 c-4 -3 -7 0 -7 7 0 7 3 10 7 7 3 -4 3 -10 0 -14z m-406 -252 l29 -29 0 -206 0 -206 -44 0 c-31 0 -46 5 -50 16 -3 9 -6 94 -6 190 l0 174 -27 6 c-50 10 -53 13 -53 43 0 34 9 39 73 40 41 1 53 -4 78 -28z m404 -1 c54 -51 54 -164 -1 -205 -16 -11 -62 -33 -103 -50 -81 -33 -103 -54 -85 -82 9 -15 30 -19 110 -23 l99 -5 0 -35 c0 -33 -2 -35 -45 -43 -70 -13 -191 -4 -223 17 -32 21 -51 82 -42 129 13 60 48 92 132 122 85 31 106 48 97 79 -10 32 -22 36 -121 36 l-91 0 -7 31 c-4 17 -3 35 1 39 14 13 63 18 161 16 82 -2 95 -5 118 -26z"/>
 <path d="M484 2483 c-25 -79 -28 -102 -29 -233 0 -127 3 -154 24 -215 76 -224 225 -397 418 -486 118 -55 205 -73 343 -73 140 1 199 15 346 85 183 88 350 300 402 509 19 77 25 211 13 287 -10 65 -36 161 -47 173 -3 2 -111 -103 -242 -233 l-237 -237 -204 204 -205 205 -114 -106 -113 -106 -157 156 c-87 86 -160 157 -164 157 -3 0 -19 -39 -34 -87z"/>
 <path d="M3280 2738 c-11 -12 -20 -29 -20 -38 0 -20 36 -60 53 -60 45 2 67 88 28 110 -28 15 -38 13 -61 -12z"/>
 </g>
<g id="layer107" fill="#636a97" stroke="none">
 <path d="M0 2500 l0 -2500 2500 0 2500 0 0 2500 0 2500 -2500 0 -2500 0 0 -2500z m1455 700 c87 -22 87 -22 190 -70 110 -51 173 -96 271 -195 159 -160 223 -282 270 -515 17 -81 14 -276 -5 -360 -5 -25 -13 -58 -17 -75 -4 -16 -23 -69 -44 -116 -93 -218 -268 -397 -488 -501 -121 -57 -215 -79 -367 -85 -159 -6 -273 14 -413 75 -126 54 -212 114 -318 221 -132 132 -206 266 -255 459 -19 75 -21 105 -16 241 4 160 10 189 64 330 53 140 138 263 253 367 60 55 182 134 250 163 30 13 65 28 77 34 108 49 400 64 548 27z m1124 -570 c4 0 20 23 36 51 l28 52 18 -24 c10 -13 27 -40 36 -59 l18 -35 5 80 c6 94 20 77 20 -23 0 -89 -11 -104 -39 -57 -11 20 -21 39 -21 43 0 4 -9 18 -18 30 l-18 24 -34 -66 c-19 -36 -38 -66 -42 -66 -4 0 -7 44 -6 98 2 88 2 91 5 25 2 -40 7 -73 12 -73z m240 110 c-33 -32 -32 -62 0 -87 23 -18 41 -12 64 19 l21 28 -23 31 c-14 19 -18 30 -10 27 8 -2 20 -16 27 -30 16 -34 1 -74 -33 -90 -22 -10 -30 -8 -53 9 -38 28 -39 91 -2 110 39 20 41 16 9 -17z m169 -89 c16 -13 16 -13 -2 -7 -12 4 -23 1 -28 -6 -4 -7 -7 20 -7 62 l1 75 9 -55 c5 -31 17 -61 27 -69z m56 -8 c-25 -18 -39 -16 -20 3 9 9 16 32 16 54 0 68 15 80 18 15 3 -47 0 -62 -14 -72z m76 55 c0 -51 -3 -68 -10 -58 -16 24 -11 130 6 130 2 0 4 -33 4 -72z m77 54 c-10 -11 -17 -36 -17 -61 0 -34 4 -43 23 -51 l22 -9 -22 0 c-18 -1 -23 -7 -23 -28 0 -14 -3 -24 -6 -20 -3 3 -6 41 -5 83 1 73 11 104 34 104 5 0 3 -8 -6 -18z m170 -10 c21 -29 16 -69 -13 -91 -34 -27 -50 -26 -79 4 -32 31 -32 59 1 91 28 29 67 27 91 -4z m73 -31 c0 -19 8 -43 18 -54 16 -20 16 -20 -2 -13 -12 4 -23 2 -28 -6 -4 -7 -8 20 -8 62 0 52 3 70 10 60 5 -8 10 -30 10 -49z m117 52 c-4 -3 -10 -3 -14 0 -3 4 0 7 7 7 7 0 10 -3 7 -7z m42 -115 c-11 -10 -29 -18 -38 -17 -9 0 -4 5 12 11 24 8 27 15 27 52 0 23 -6 48 -12 55 -9 10 -9 12 -1 7 6 -3 15 -1 20 6 5 8 9 -9 11 -42 3 -46 0 -58 -19 -72z m83 55 c3 -30 0 -43 -9 -43 -14 0 -18 65 -6 97 8 20 10 15 15 -54z m108 -49 c13 -17 13 -18 0 -7 -12 9 -19 8 -34 -3 -29 -21 -39 -17 -16 6 14 14 20 35 21 73 l2 52 6 -51 c3 -28 13 -60 21 -70z m54 -11 c-27 -20 -36 -15 -14 7 14 14 21 35 22 73 l2 52 3 -60 c3 -48 1 -62 -13 -72z m104 111 c-16 -8 -28 -23 -28 -34 0 -18 7 -20 55 -20 61 0 71 -13 33 -46 -23 -19 -23 -19 -5 2 25 30 22 34 -33 34 -52 0 -63 -12 -37 -40 6 -8 2 -6 -10 4 -32 26 -30 69 3 95 15 12 32 21 38 21 6 -1 -1 -8 -16 -16z m157 -99 c20 -16 20 -16 -2 -10 -16 4 -23 2 -23 -7 0 -10 -3 -9 -10 2 -11 18 -13 75 -3 110 6 20 9 15 13 -27 4 -36 12 -58 25 -68z m75 105 c0 -5 -4 -10 -10 -10 -5 0 -10 5 -10 10 0 6 5 10 10 10 6 0 10 -4 10 -10z m94 1 c3 -5 -2 -8 -12 -7 -14 1 -18 -9 -20 -52 -3 -48 -1 -54 19 -59 21 -6 22 -7 4 -13 -11 -4 -23 -18 -26 -31 -7 -23 -7 -23 -8 4 -1 15 -6 27 -13 27 -9 0 -9 3 0 12 7 7 12 33 12 58 0 54 26 90 44 61z m140 -12 c32 -25 35 -68 6 -94 -11 -10 -22 -16 -25 -13 -3 3 1 11 10 18 37 31 1 109 -45 95 -48 -15 -46 -89 4 -113 11 -6 16 -11 10 -11 -25 -2 -64 41 -64 69 0 29 38 70 65 70 7 0 24 -9 39 -21z m-889 -19 c0 -25 -2 -27 -14 -15 -12 11 -12 17 -1 29 16 20 15 21 15 -14z m480 20 c3 -5 4 -10 1 -10 -3 0 -8 5 -11 10 -3 6 -4 10 -1 10 3 0 8 -4 11 -10z m-438 -57 c-4 -3 -10 -3 -14 0 -3 4 0 7 7 7 7 0 10 -3 7 -7z m613 -11 c0 -21 -36 -59 -46 -49 -4 4 1 9 10 13 9 3 16 17 16 30 0 13 5 24 10 24 6 0 10 -8 10 -18z m-643 -39 c-4 -3 -10 -3 -14 0 -3 4 0 7 7 7 7 0 10 -3 7 -7z m440 -9 c-3 -3 -12 -4 -19 -1 -8 3 -5 6 6 6 11 1 17 -2 13 -5z m-860 -51 c-4 -3 -7 0 -7 7 0 7 3 10 7 7 3 -4 3 -10 0 -14z m-406 -252 l29 -29 0 -206 0 -206 -44 0 c-31 0 -46 5 -50 16 -3 9 -6 94 -6 190 l0 174 -27 6 c-50 10 -53 13 -53 43 0 34 9 39 73 40 41 1 53 -4 78 -28z m404 -1 c54 -51 54 -164 -1 -205 -16 -11 -62 -33 -103 -50 -81 -33 -103 -54 -85 -82 9 -15 30 -19 110 -23 l99 -5 0 -35 c0 -33 -2 -35 -45 -43 -70 -13 -191 -4 -223 17 -32 21 -51 82 -42 129 13 60 48 92 132 122 85 31 106 48 97 79 -10 32 -22 36 -121 36 l-91 0 -7 31 c-4 17 -3 35 1 39 14 13 63 18 161 16 82 -2 95 -5 118 -26z m350 21 c25 -5 31 -12 33 -39 l3 -32 -70 0 c-92 0 -111 -16 -111 -93 0 -77 13 -90 98 -95 66 -4 71 -6 77 -30 9 -36 -5 -44 -83 -50 -121 -8 -174 24 -192 118 -12 65 1 153 27 183 38 42 127 57 218 38z m286 -20 c35 -26 39 -26 39 -1 0 17 7 20 40 20 l40 0 0 -130 c0 -153 -9 -182 -67 -201 -38 -12 -210 -6 -224 9 -4 4 -5 19 -2 35 5 27 6 27 83 27 94 0 110 5 110 35 0 22 -4 23 -84 26 -109 5 -126 18 -126 99 0 57 17 86 60 103 28 12 102 -1 131 -22z m299 -95 l0 -114 46 -16 c78 -26 84 -17 84 124 l0 120 45 0 45 0 0 -145 c0 -142 -1 -147 -25 -170 -32 -33 -86 -33 -151 0 -27 14 -50 25 -51 25 -2 0 -3 -9 -3 -20 0 -17 -7 -20 -40 -20 l-40 0 0 165 0 165 45 0 45 0 0 -114z"/>
 <path d="M484 2483 c-25 -79 -28 -102 -29 -233 0 -127 3 -154 24 -215 76 -224 225 -397 418 -486 118 -55 205 -73 343 -73 140 1 199 15 346 85 183 88 350 300 402 509 19 77 25 211 13 287 -10 65 -36 161 -47 173 -3 2 -111 -103 -242 -233 l-237 -237 -204 204 -205 205 -114 -106 -113 -106 -157 156 c-87 86 -160 157 -164 157 -3 0 -19 -39 -34 -87z"/>
 <path d="M3280 2738 c-11 -12 -20 -29 -20 -38 0 -20 36 -60 53 -60 45 2 67 88 28 110 -28 15 -38 13 -61 -12z"/>
 <path d="M3678 2282 c-9 -2 -20 -12 -23 -23 -11 -32 12 -49 66 -49 45 0 49 2 49 24 0 14 -5 28 -10 31 -19 12 -65 21 -82 17z"/>
 </g>
<g id="layer108" fill="#7b85b5" stroke="none">
 <path d="M0 2500 l0 -2500 2500 0 2500 0 0 2500 0 2500 -2500 0 -2500 0 0 -2500z m1458 699 c97 -23 226 -80 311 -136 81 -53 239 -217 289 -300 61 -101 101 -202 123 -310 21 -105 25 -276 9 -351 -6 -26 -16 -69 -22 -97 -6 -27 -27 -89 -48 -136 -115 -270 -365 -486 -647 -560 -113 -30 -302 -36 -417 -15 -161 31 -329 110 -451 214 -168 143 -270 308 -324 524 -26 103 -29 302 -5 415 49 236 186 448 389 598 83 62 212 123 320 151 126 32 346 34 473 3z m1121 -569 c4 0 22 26 39 57 l30 57 29 -52 c15 -28 31 -52 36 -52 4 0 7 29 7 65 0 37 4 65 10 65 6 0 10 -38 10 -95 0 -53 -4 -95 -10 -95 -5 0 -25 28 -46 63 -20 34 -37 63 -39 65 -1 1 -17 -27 -36 -63 -18 -36 -37 -65 -41 -65 -4 0 -7 44 -6 98 2 88 2 91 5 25 2 -40 8 -73 12 -73z m306 115 c33 -32 32 -68 -1 -94 -32 -25 -52 -26 -82 -5 -16 11 -22 25 -22 54 0 66 59 92 105 45z m80 -38 c5 -37 12 -50 28 -56 32 -12 47 5 47 53 0 22 5 48 10 56 7 11 10 -3 10 -45 0 -34 -5 -66 -12 -73 -16 -16 -51 -15 -66 0 -10 10 -15 10 -22 -2 -7 -10 -9 9 -9 60 1 81 4 82 14 7z m155 -9 c0 -51 -3 -68 -10 -58 -16 24 -11 130 6 130 2 0 4 -33 4 -72z m105 61 c4 -6 0 -9 -11 -7 -16 3 -19 -5 -22 -54 -3 -50 0 -58 15 -59 17 -1 17 -2 1 -6 -11 -3 -18 -14 -18 -29 0 -13 -4 -24 -10 -24 -5 0 -10 11 -10 25 0 14 -5 25 -12 25 -9 0 -9 3 0 12 7 7 12 33 12 58 0 46 13 70 36 70 7 0 16 -5 19 -11z m143 -16 c21 -28 14 -70 -14 -92 -15 -12 -32 -21 -39 -21 -27 0 -65 41 -65 70 0 59 82 89 118 43z m72 -23 c0 -42 4 -52 25 -66 31 -20 26 -31 -5 -14 -18 10 -24 9 -31 -1 -5 -9 -9 14 -9 59 0 41 4 72 10 72 6 0 10 -22 10 -50z m140 40 c9 -6 19 -5 28 2 11 9 13 1 10 -47 -3 -52 -6 -61 -29 -74 -22 -12 -32 -13 -50 -3 -23 11 -23 11 4 6 38 -8 57 11 57 57 0 43 -21 62 -58 52 -38 -9 -23 -44 23 -56 19 -4 19 -5 -1 -6 -12 0 -32 8 -45 18 -23 19 -24 19 -5 40 20 23 42 26 66 11z m100 -39 c0 -40 4 -53 22 -65 34 -24 58 3 60 68 1 38 2 42 5 16 6 -60 13 -79 31 -89 30 -16 46 4 53 66 l6 58 2 -61 c1 -77 -15 -97 -59 -72 -25 14 -31 14 -41 2 -15 -19 -38 -18 -61 3 -17 15 -18 15 -18 0 0 -10 -4 -17 -10 -17 -6 0 -10 30 -10 70 0 40 4 70 10 70 6 0 10 -22 10 -49z m326 35 c10 -8 15 -18 11 -22 -4 -5 -11 -4 -15 2 -14 21 -45 25 -63 8 -34 -31 -24 -44 36 -44 47 0 55 -3 55 -19 0 -43 -63 -62 -103 -31 -36 29 -36 71 -1 99 31 25 53 26 80 7z m79 -72 c6 -26 48 -47 64 -31 6 6 11 19 11 29 0 10 5 18 10 18 16 0 12 -37 -6 -54 -19 -19 -45 -21 -62 -4 -10 10 -15 10 -21 0 -18 -30 -29 56 -13 108 6 23 7 22 10 -10 1 -19 4 -44 7 -56z m95 76 c0 -5 -4 -10 -10 -10 -5 0 -10 5 -10 10 0 6 5 10 10 10 6 0 10 -4 10 -10z m96 -2 c4 -7 4 -10 -1 -6 -17 16 -35 -16 -35 -59 0 -38 3 -46 22 -51 21 -5 21 -6 3 -12 -11 -4 -23 -18 -26 -31 -7 -23 -7 -23 -8 4 -1 15 -6 27 -13 27 -9 0 -9 3 0 12 7 7 12 35 12 63 0 29 3 55 7 58 10 11 31 8 39 -5z m144 -13 c29 -26 26 -69 -6 -94 -33 -26 -58 -27 -84 -1 -24 24 -26 67 -5 97 18 26 65 25 95 -2z m-1303 -162 c-4 -3 -7 0 -7 7 0 7 3 10 7 7 3 -4 3 -10 0 -14z m-406 -252 l29 -29 0 -206 0 -206 -50 0 -50 0 0 190 0 190 -27 6 c-50 10 -53 13 -53 43 0 34 9 39 73 40 41 1 53 -4 78 -28z m404 -1 c54 -51 54 -164 -1 -205 -16 -11 -62 -33 -103 -50 -81 -33 -103 -54 -85 -82 9 -15 30 -19 110 -23 l99 -5 0 -35 c0 -33 -2 -35 -45 -43 -70 -13 -191 -4 -223 17 -32 22 -51 81 -41 132 11 57 45 89 132 120 84 30 105 47 96 78 -10 32 -22 36 -121 36 l-91 0 -7 31 c-4 17 -3 35 1 39 14 13 63 18 161 16 82 -2 95 -5 118 -26z m350 21 c25 -5 31 -12 33 -39 l3 -32 -70 0 c-92 0 -111 -16 -111 -93 0 -77 13 -90 98 -95 66 -4 71 -6 77 -30 9 -36 -5 -44 -83 -50 -121 -8 -174 24 -192 118 -12 65 1 153 27 183 38 42 127 57 218 38z m286 -20 c35 -26 39 -26 39 -1 0 17 7 20 40 20 l40 0 0 -130 c0 -153 -9 -182 -67 -201 -38 -12 -210 -6 -224 9 -4 4 -5 19 -2 35 5 27 6 27 83 27 94 0 110 5 110 35 0 22 -4 23 -84 26 -109 5 -126 18 -126 99 0 57 17 86 60 103 28 12 102 -1 131 -22z m299 -95 l0 -114 46 -16 c78 -26 84 -17 84 124 l0 120 45 0 45 0 0 -145 c0 -142 -1 -147 -25 -170 -32 -33 -86 -33 -151 0 -27 14 -50 25 -51 25 -2 0 -3 -9 -3 -20 0 -17 -7 -20 -40 -20 l-40 0 0 165 0 165 45 0 45 0 0 -114z"/>
 <path d="M484 2483 c-25 -79 -28 -102 -29 -233 0 -127 3 -154 24 -215 76 -224 225 -397 418 -486 118 -55 205 -73 343 -73 140 1 199 15 346 85 183 88 350 300 402 509 19 77 25 211 13 287 -10 65 -36 161 -47 173 -3 2 -111 -103 -242 -233 l-237 -237 -204 204 -205 205 -114 -106 -113 -106 -157 156 c-87 86 -160 157 -164 157 -3 0 -19 -39 -34 -87z"/>
 <path d="M2811 2734 c-26 -33 -26 -37 3 -70 23 -27 24 -28 50 -11 34 22 36 69 4 91 -30 21 -33 20 -57 -10z"/>
 <path d="M3294 2752 c-24 -16 -34 -50 -23 -76 15 -32 33 -38 64 -24 19 8 25 19 25 43 0 45 -37 77 -66 57z"/>
 <path d="M3920 2675 c0 -24 43 -39 69 -26 38 21 26 41 -24 41 -34 0 -45 -4 -45 -15z"/>
 <path d="M4341 2734 c-27 -34 -26 -45 4 -74 23 -22 25 -22 50 -6 30 20 34 65 7 89 -25 23 -37 21 -61 -9z"/>
 <path d="M3678 2282 c-9 -2 -20 -12 -23 -23 -11 -32 12 -49 66 -49 45 0 49 2 49 24 0 14 -5 28 -10 31 -19 12 -65 21 -82 17z"/>
 </g>
<g id="layer109" fill="#8c92b9" stroke="none">
 <path d="M0 2500 l0 -2500 2500 0 2500 0 0 2500 0 2500 -2500 0 -2500 0 0 -2500z m1458 699 c107 -26 272 -102 349 -162 177 -137 304 -322 363 -528 28 -97 38 -302 20 -402 -57 -325 -244 -582 -525 -722 -142 -71 -236 -95 -395 -102 -192 -8 -336 25 -508 118 -242 129 -422 367 -483 634 -24 104 -25 306 -3 413 74 357 357 657 708 748 126 32 347 34 474 3z m1121 -569 c4 0 22 26 39 57 l30 57 29 -52 c15 -28 31 -52 36 -52 4 0 7 29 7 65 0 37 4 65 10 65 6 0 10 -38 10 -95 0 -53 -4 -95 -10 -95 -5 0 -25 28 -46 63 -20 34 -37 63 -39 65 -1 1 -17 -27 -36 -63 -18 -36 -37 -65 -41 -65 -4 0 -7 44 -6 98 2 88 2 91 5 25 2 -40 8 -73 12 -73z m306 115 c33 -32 32 -68 -1 -94 -32 -25 -52 -26 -82 -5 -16 11 -22 25 -22 54 0 66 59 92 105 45z m96 -81 c7 -8 22 -14 33 -12 18 3 21 11 24 61 2 31 7 57 12 57 14 0 12 -114 -2 -128 -16 -16 -51 -15 -66 0 -10 10 -15 10 -22 -2 -7 -10 -9 9 -9 60 1 72 2 73 9 27 5 -27 14 -55 21 -63z m139 34 c0 -51 -3 -68 -10 -58 -16 24 -11 130 6 130 2 0 4 -33 4 -72z m105 62 c3 -5 -3 -10 -14 -10 -19 0 -21 -6 -21 -55 0 -45 3 -55 18 -56 16 -1 16 -2 0 -6 -11 -3 -18 -14 -18 -29 0 -13 -4 -24 -10 -24 -5 0 -10 11 -10 25 0 14 -5 25 -12 25 -9 0 -9 3 0 12 7 7 12 35 12 63 0 29 3 55 7 58 10 10 41 8 48 -3z m135 -10 c40 -40 12 -120 -42 -120 -30 0 -68 38 -68 69 0 32 37 71 67 71 13 0 32 -9 43 -20z m80 -30 c0 -42 4 -52 25 -66 30 -20 26 -31 -4 -14 -14 7 -21 7 -21 0 0 -5 -4 -10 -10 -10 -6 0 -10 30 -10 70 0 40 4 70 10 70 6 0 10 -22 10 -50z m140 40 c9 -5 19 -5 27 2 21 17 17 -91 -4 -114 -20 -22 -66 -24 -83 -3 -15 18 -10 18 26 5 19 -7 30 -7 40 1 24 20 16 39 -15 39 -16 0 -39 9 -52 19 -23 19 -24 19 -5 40 20 23 42 26 66 11z m100 -38 c0 -50 12 -72 41 -72 23 0 29 11 36 67 7 62 13 68 13 14 0 -55 15 -81 45 -81 26 0 32 12 38 85 3 29 4 23 5 -20 3 -80 -26 -108 -68 -70 -15 14 -18 14 -30 0 -15 -18 -51 -20 -68 -3 -9 9 -12 9 -12 0 0 -7 -4 -12 -10 -12 -6 0 -10 30 -10 70 0 40 4 70 10 70 6 0 10 -22 10 -48z m326 34 c10 -8 15 -18 11 -22 -4 -5 -11 -4 -15 2 -14 21 -45 25 -63 8 -34 -31 -24 -44 36 -44 45 0 55 -3 55 -17 0 -48 -73 -70 -110 -33 -59 59 19 155 86 106z m94 -97 c25 -15 55 -6 58 19 4 25 22 31 22 6 0 -45 -49 -71 -78 -42 -10 10 -15 10 -21 0 -18 -29 -29 56 -14 108 6 20 9 15 13 -28 3 -31 12 -57 20 -63z m80 101 c0 -5 -4 -10 -10 -10 -5 0 -10 5 -10 10 0 6 5 10 10 10 6 0 10 -4 10 -10z m105 1 c3 -5 -5 -11 -17 -13 -20 -3 -23 -10 -26 -51 -3 -43 -1 -49 19 -54 21 -6 22 -7 4 -13 -11 -4 -23 -18 -26 -31 -7 -23 -7 -23 -8 4 -1 15 -6 27 -13 27 -9 0 -9 3 0 12 7 7 12 35 12 63 0 29 3 55 7 58 9 10 41 8 48 -2z m129 -12 c17 -13 26 -30 26 -49 0 -31 -39 -70 -71 -70 -28 0 -59 36 -59 68 0 65 53 91 104 51z m-1297 -161 c-3 -8 -6 -5 -6 6 -1 11 2 17 5 13 3 -3 4 -12 1 -19z m-406 -257 l29 -29 0 -206 0 -206 -50 0 -50 0 0 190 0 190 -27 6 c-50 10 -53 13 -53 43 0 34 9 39 73 40 41 1 53 -4 78 -28z m401 7 c33 -22 52 -92 39 -149 -12 -52 -46 -81 -127 -109 -70 -24 -90 -37 -98 -66 -10 -34 13 -43 115 -46 l94 -3 0 -35 c0 -33 -2 -35 -45 -43 -68 -12 -194 -3 -224 16 -31 21 -50 83 -40 134 10 56 49 90 139 122 78 28 80 30 83 65 4 42 -2 45 -128 48 l-85 3 0 35 c0 32 3 36 35 42 65 12 215 4 242 -14z m353 13 c25 -5 31 -12 33 -39 l3 -32 -70 0 c-92 0 -111 -16 -111 -93 0 -77 13 -90 98 -95 66 -4 71 -6 77 -30 9 -36 -5 -44 -83 -50 -121 -8 -174 24 -192 118 -12 65 1 153 27 183 38 42 127 57 218 38z m286 -20 c35 -26 39 -26 39 -1 0 17 7 20 40 20 l40 0 0 -130 c0 -153 -9 -182 -67 -201 -38 -12 -210 -6 -224 9 -4 4 -5 19 -2 35 5 27 6 27 83 27 94 0 110 5 110 35 0 22 -4 23 -84 26 -109 5 -126 18 -126 99 0 57 17 86 60 103 28 12 102 -1 131 -22z m299 -95 l0 -114 46 -16 c78 -26 84 -17 84 124 l0 120 45 0 45 0 0 -145 c0 -142 -1 -147 -25 -170 -32 -33 -86 -33 -151 0 -27 14 -50 25 -51 25 -2 0 -3 -9 -3 -20 0 -17 -7 -20 -40 -20 l-40 0 0 165 0 165 45 0 45 0 0 -114z"/>
 <path d="M485 2483 c-26 -79 -29 -102 -30 -223 0 -160 13 -221 81 -360 41 -83 60 -108 148 -195 84 -84 116 -108 186 -142 135 -67 223 -87 370 -87 142 1 202 16 348 87 151 74 293 230 363 399 45 108 66 264 52 376 -11 85 -40 192 -52 192 -3 0 -112 -106 -241 -235 l-235 -235 -205 205 -206 205 -44 -46 c-25 -25 -76 -73 -113 -106 l-68 -61 -157 156 c-87 87 -160 157 -163 157 -3 0 -18 -39 -34 -87z"/>
 <path d="M2828 2749 c-10 -5 -23 -19 -29 -30 -23 -45 48 -94 80 -55 31 37 -13 107 -51 85z"/>
 <path d="M3299 2753 c-26 -6 -41 -48 -27 -78 13 -29 58 -35 77 -11 29 34 -8 99 -50 89z"/>
 <path d="M3538 2753 c-22 -5 -23 -26 -3 -43 18 -15 65 -5 65 15 0 12 -32 38 -42 34 -2 -1 -11 -3 -20 -6z"/>
 <path d="M3920 2675 c0 -36 81 -37 88 -1 3 13 -5 16 -42 16 -35 0 -46 -4 -46 -15z"/>
 <path d="M4345 2735 c-30 -29 -31 -46 -7 -68 37 -34 82 -15 82 33 0 24 -26 60 -44 60 -4 0 -18 -11 -31 -25z"/>
 <path d="M3678 2282 c-9 -2 -20 -12 -23 -23 -11 -32 12 -49 66 -49 45 0 49 2 49 24 0 14 -5 28 -10 31 -19 12 -65 21 -82 17z"/>
 </g>
<g id="layer110" fill="#ffffff" stroke="none">
 <path d="M0 2500 l0 -2500 2500 0 2500 0 0 2500 0 2500 -2500 0 -2500 0 0 -2500z m1458 699 c107 -26 272 -102 349 -162 179 -138 304 -321 365 -533 20 -68 23 -102 23 -249 0 -200 -15 -267 -95 -430 -122 -250 -355 -443 -625 -516 -116 -32 -375 -33 -488 -1 -298 82 -537 291 -657 570 -58 136 -74 231 -67 408 6 177 24 250 97 400 68 136 175 263 311 366 61 47 220 119 313 144 126 32 347 34 474 3z m1120 -569 c4 0 21 26 38 57 l32 57 28 -52 c16 -28 32 -52 37 -52 4 0 7 29 7 65 0 37 4 65 10 65 6 0 10 -38 10 -95 0 -55 -4 -95 -10 -95 -5 0 -26 29 -47 65 l-37 65 -35 -65 c-20 -36 -39 -65 -43 -65 -4 0 -7 44 -6 98 2 88 2 91 5 25 2 -40 7 -73 11 -73z m309 118 c29 -27 29 -65 1 -95 -43 -46 -108 -18 -108 47 0 64 61 92 107 48z m77 -10 c-6 -45 15 -83 46 -83 23 0 25 4 28 58 2 31 7 57 12 57 14 0 12 -114 -2 -128 -16 -16 -51 -15 -66 0 -10 10 -15 10 -22 -2 -7 -10 -10 8 -10 58 0 39 4 72 9 72 6 0 8 -15 5 -32z m156 -38 c0 -40 -4 -70 -10 -70 -6 0 -10 30 -10 70 0 40 4 70 10 70 6 0 10 -30 10 -70z m105 60 c3 -5 -3 -10 -14 -10 -19 0 -21 -6 -21 -55 0 -45 3 -55 18 -56 16 -1 16 -2 0 -6 -11 -3 -18 -14 -18 -29 0 -13 -4 -24 -10 -24 -5 0 -10 11 -10 25 0 14 -5 25 -12 25 -9 0 -9 3 0 12 7 7 12 35 12 63 0 29 3 55 7 58 10 10 41 8 48 -3z m135 -10 c41 -41 12 -120 -45 -120 -14 0 -34 9 -45 20 -41 41 -12 120 45 120 14 0 34 -9 45 -20z m82 -32 c2 -44 7 -55 26 -63 12 -5 22 -13 22 -17 0 -12 -25 -9 -38 4 -9 9 -12 9 -12 0 0 -7 -4 -12 -10 -12 -6 0 -10 30 -10 70 0 81 18 95 22 18z m144 41 c4 -8 9 -8 17 0 6 6 14 11 18 11 12 0 -4 -105 -19 -122 -18 -21 -65 -24 -81 -5 -9 11 -3 14 31 13 33 -1 43 3 46 17 3 13 -3 17 -31 17 -45 0 -73 29 -57 59 12 23 64 30 76 10z m96 -40 c3 -55 21 -78 52 -66 12 5 16 20 16 62 0 30 5 55 10 55 6 0 10 -18 10 -41 0 -53 15 -79 45 -79 26 0 32 12 38 85 3 29 4 23 5 -20 3 -80 -26 -108 -68 -70 -15 14 -18 14 -30 0 -15 -18 -51 -20 -68 -3 -9 9 -12 9 -12 0 0 -7 -4 -12 -10 -12 -6 0 -10 30 -10 70 0 81 17 95 22 19z m324 37 c11 -8 15 -18 10 -23 -5 -4 -11 -2 -13 5 -6 15 -55 16 -71 0 -26 -26 -13 -38 43 -38 45 0 55 -3 55 -17 0 -48 -73 -70 -110 -33 -59 59 19 155 86 106z m74 -30 c0 -28 6 -51 16 -61 23 -22 58 -15 62 13 4 25 22 31 22 6 0 -46 -48 -71 -79 -41 -11 10 -14 10 -18 0 -12 -33 -23 -6 -23 57 0 40 4 70 10 70 6 0 10 -20 10 -44z m100 34 c0 -5 -4 -10 -10 -10 -5 0 -10 5 -10 10 0 6 5 10 10 10 6 0 10 -4 10 -10z m105 0 c3 -5 -3 -10 -14 -10 -19 0 -21 -6 -21 -55 0 -45 3 -55 18 -56 16 -1 16 -2 0 -6 -11 -3 -18 -14 -18 -29 0 -13 -4 -24 -10 -24 -5 0 -10 11 -10 25 0 14 -5 25 -12 25 -9 0 -9 3 0 12 7 7 12 35 12 63 0 29 3 55 7 58 10 10 41 8 48 -3z m132 -12 c29 -27 29 -65 1 -95 -42 -45 -108 -18 -108 44 0 68 59 96 107 51z m-1297 -153 c0 -8 -4 -15 -10 -15 -5 0 -10 7 -10 15 0 8 5 15 10 15 6 0 10 -7 10 -15z m-409 -264 l29 -29 0 -206 0 -206 -50 0 -50 0 0 190 0 190 -27 6 c-50 10 -53 13 -53 43 0 34 9 39 73 40 41 1 53 -4 78 -28z m372 18 c51 -14 70 -47 70 -120 0 -75 -21 -107 -89 -133 -139 -55 -136 -53 -132 -88 l3 -33 100 -5 100 -5 0 -35 c0 -33 -2 -35 -45 -43 -68 -12 -194 -3 -224 16 -30 20 -50 83 -40 133 10 53 46 89 116 114 91 33 108 46 108 79 0 37 -12 41 -126 41 l-95 0 3 38 c3 34 6 38 38 43 58 10 173 10 213 -2z m382 2 c25 -5 31 -12 33 -39 l3 -32 -70 0 c-92 0 -111 -16 -111 -93 0 -77 13 -90 98 -95 66 -4 71 -6 77 -30 9 -36 -5 -44 -83 -50 -121 -8 -174 24 -192 118 -12 65 1 153 27 183 38 42 127 57 218 38z m286 -20 c35 -26 39 -26 39 -1 0 17 7 20 40 20 l40 0 0 -130 c0 -153 -9 -182 -67 -201 -38 -12 -210 -6 -224 9 -4 4 -5 19 -2 35 5 27 6 27 83 27 94 0 110 5 110 35 0 22 -4 23 -84 26 -109 5 -126 18 -126 99 0 57 17 86 60 103 28 12 102 -1 131 -22z m299 -95 l0 -114 46 -16 c78 -26 84 -17 84 124 l0 120 45 0 45 0 0 -145 c0 -142 -1 -147 -25 -170 -32 -33 -86 -33 -151 0 -27 14 -50 25 -51 25 -2 0 -3 -9 -3 -20 0 -17 -7 -20 -40 -20 l-40 0 0 165 0 165 45 0 45 0 0 -114z"/>
 <path d="M492 2498 c-35 -120 -45 -192 -39 -291 7 -119 26 -190 83 -306 40 -81 61 -108 148 -196 85 -85 115 -108 186 -143 255 -124 512 -117 758 20 74 42 193 157 249 241 91 136 143 336 129 491 -6 71 -43 216 -55 216 -3 0 -112 -106 -241 -235 l-235 -235 -205 205 -206 205 -44 -46 c-25 -25 -76 -73 -113 -106 l-68 -61 -157 156 c-87 87 -160 157 -163 157 -3 0 -15 -33 -27 -72z"/>
 <path d="M2804 2725 c-15 -23 -15 -27 0 -50 29 -44 86 -28 86 25 0 53 -57 69 -86 25z"/>
 <path d="M3282 2738 c-7 -7 -12 -24 -12 -38 0 -31 17 -50 45 -50 28 0 45 19 45 50 0 31 -17 50 -45 50 -12 0 -26 -5 -33 -12z"/>
 <path d="M3533 2744 c-17 -13 -17 -15 1 -29 11 -8 25 -15 30 -15 21 0 39 18 33 33 -8 21 -43 27 -64 11z"/>
 <path d="M3922 2678 c2 -6 13 -17 24 -24 23 -15 64 -2 64 21 0 11 -11 15 -46 15 -30 0 -44 -4 -42 -12z"/>
 <path d="M4336 2729 c-22 -33 0 -79 38 -79 29 0 46 18 46 50 0 50 -55 69 -84 29z"/>
 <path d="M3678 2282 c-9 -2 -20 -12 -23 -23 -11 -32 12 -49 66 -49 45 0 49 2 49 24 0 14 -5 28 -10 31 -19 12 -65 21 -82 17z"/>
 </g>

</svg>